HIERARCHY
ROOT Hips
{
	OFFSET 0.00000 0.00000 0.00000
	CHANNELS 6 Xposition Yposition Zposition Zrotation Yrotation Xrotation 
	JOINT LHipJoint
	{
		OFFSET 0 0 0
		CHANNELS 3 Zrotation Yrotation Xrotation
		JOINT LeftUpLeg
		{
			OFFSET 1.58161 -1.81893 0.78828
			CHANNELS 3 Zrotation Yrotation Xrotation
			JOINT LeftLeg
			{
				OFFSET 2.53374 -6.96141 0.00000
				CHANNELS 3 Zrotation Yrotation Xrotation
				JOINT LeftFoot
				{
					OFFSET 2.63509 -7.23986 0.00000
					CHANNELS 3 Zrotation Yrotation Xrotation
					JOINT LeftToeBase
					{
						OFFSET 0.14115 -0.38781 2.05350
						CHANNELS 3 Zrotation Yrotation Xrotation
						End Site
						{
							OFFSET 0.00000 -0.00000 1.05543
						}
					}
				}
			}
		}
	}
	JOINT RHipJoint
	{
		OFFSET 0 0 0
		CHANNELS 3 Zrotation Yrotation Xrotation
		JOINT RightUpLeg
		{
			OFFSET -1.11138 -1.81893 0.78828
			CHANNELS 3 Zrotation Yrotation Xrotation
			JOINT RightLeg
			{
				OFFSET -2.58392 -7.09926 0.00000
				CHANNELS 3 Zrotation Yrotation Xrotation
				JOINT RightFoot
				{
					OFFSET -2.66423 -7.31992 0.00000
					CHANNELS 3 Zrotation Yrotation Xrotation
					JOINT RightToeBase
					{
						OFFSET -0.18831 -0.51739 2.12114
						CHANNELS 3 Zrotation Yrotation Xrotation
						End Site
						{
							OFFSET -0.00000 -0.00000 1.09845
						}
					}
				}
			}
		}
	}
	JOINT LowerBack
	{
		OFFSET 0 0 0
		CHANNELS 3 Zrotation Yrotation Xrotation
		JOINT Spine
		{
			OFFSET -0.01511 1.97958 -0.08829
			CHANNELS 3 Zrotation Yrotation Xrotation
			JOINT Spine1
			{
				OFFSET 0.08344 1.97334 -0.04330
				CHANNELS 3 Zrotation Yrotation Xrotation
				JOINT Neck
				{
					OFFSET 0 0 0
					CHANNELS 3 Zrotation Yrotation Xrotation
					JOINT Neck1
					{
						OFFSET 0.00559 1.76246 0.31246
						CHANNELS 3 Zrotation Yrotation Xrotation
						JOINT Head
						{
							OFFSET -0.07011 1.80354 -0.30524
							CHANNELS 3 Zrotation Yrotation Xrotation
							End Site
							{
								OFFSET -0.02385 1.83547 -0.13906
							}
						}
					}
				}
				JOINT LeftShoulder
				{
					OFFSET 0 0 0
					CHANNELS 3 Zrotation Yrotation Xrotation
					JOINT LeftArm
					{
						OFFSET 3.20667 1.30156 -0.60240
						CHANNELS 3 Zrotation Yrotation Xrotation
						JOINT LeftForeArm
						{
							OFFSET 4.95663 -0.00000 0.00000
							CHANNELS 3 Zrotation Yrotation Xrotation
							JOINT LeftHand
							{
								OFFSET 3.38177 -0.00000 0.00000
								CHANNELS 3 Zrotation Yrotation Xrotation
								JOINT LeftFingerBase
								{
									OFFSET 0 0 0
									CHANNELS 3 Zrotation Yrotation Xrotation
									JOINT LeftHandIndex1
									{
										OFFSET 0.66291 -0.00000 0.00000
										CHANNELS 3 Zrotation Yrotation Xrotation
										End Site
										{
											OFFSET 0.53445 -0.00000 0.00000
										}
									}
								}
								JOINT LThumb
								{
									OFFSET 0 0 0
									CHANNELS 3 Zrotation Yrotation Xrotation
									End Site
									{
										OFFSET 0.54261 -0.00000 0.54261
									}
								}
							}
						}
					}
				}
				JOINT RightShoulder
				{
					OFFSET 0 0 0
					CHANNELS 3 Zrotation Yrotation Xrotation
					JOINT RightArm
					{
						OFFSET -3.06877 1.34672 -0.60964
						CHANNELS 3 Zrotation Yrotation Xrotation
						JOINT RightForeArm
						{
							OFFSET -5.08365 -0.00000 0.00000
							CHANNELS 3 Zrotation Yrotation Xrotation
							JOINT RightHand
							{
								OFFSET -3.35984 -0.00000 0.00000
								CHANNELS 3 Zrotation Yrotation Xrotation
								JOINT RightFingerBase
								{
									OFFSET 0 0 0
									CHANNELS 3 Zrotation Yrotation Xrotation
									JOINT RightHandIndex1
									{
										OFFSET -0.82076 -0.00000 0.00000
										CHANNELS 3 Zrotation Yrotation Xrotation
										End Site
										{
											OFFSET -0.66172 -0.00000 0.00000
										}
									}
								}
								JOINT RThumb
								{
									OFFSET 0 0 0
									CHANNELS 3 Zrotation Yrotation Xrotation
									End Site
									{
										OFFSET -0.67182 -0.00000 0.67182
									}
								}
							}
						}
					}
				}
			}
		}
	}
}
MOTION
Frames: 5
Frame Time: .0083333
-8.1657 17.8158 0.146 0 0 0 0 0 0 -21 0 0 0 0 0 0 0 0 0 0 0 0 0 0 21 0 0 0 0 0 0 0 0 0 0 0 0 0 0 0 0 0 0 0 0 0 0 -16 0 0 21 0 0 11 0 0 0 -8 0 0 0 0 0 0 0 0 0 0 0 0 0 0 0 0 0 0 0 0 8 0 0 0 0 0 0 0 0 0 0 0 0 0 0 0 0 0
-8.1657 17.8158 0.1460 -130.8810 85.8801 -116.8940 0.0000 0.0000 0.0000 -6.1101 -3.9109 -28.9254 2.1653 9.2023 26.4302 0.1926 -5.6728 -8.1966 1.4871 -7.7042 -21.8192 0.0000 0.0000 0.0000 9.4208 8.5390 -24.8007 -1.9901 -8.8454 25.3129 -0.0830 -7.4424 -12.2770 -0.0589 1.5664 -4.3088 -1.4485 1.5249 3.8073 4.3425 2.0987 4.5054 5.2746 1.0083 2.3001 2.0364 -2.1612 -15.7017 -4.4923 -0.3624 38.7236 -2.2619 0.0628 16.5490 -0.0000 -0.0000 0.0000 -108.0247 -24.1612 77.2090 13.3069 -21.7353 -2.5658 -0.0000 0.0000 -42.6694 -156.6539 -59.8666 -20.4702 -7.1250 0.0000 -0.0000 160.9457 57.0016 -5.7457 -0.0000 -0.0000 0.0000 101.5807 28.9566 32.9694 -9.6229 16.1475 -1.3682 0.0000 -0.0000 -30.7909 -13.8226 -8.5504 2.0950 7.1250 -0.0000 -0.0000 11.2414 -38.5503 1.8129
-8.1650 17.8186 0.1457 -130.6360 85.8892 -116.6410 0.0000 0.0000 0.0000 -6.0659 -4.0086 -28.8802 2.1716 9.2147 26.4692 0.1931 -5.6474 -8.2000 1.3578 -7.3758 -20.8337 0.0000 0.0000 0.0000 9.4244 8.5334 -24.7775 -1.9799 -8.8241 25.2465 -0.0819 -7.4153 -12.2245 -0.0506 1.4512 -3.9911 -1.4551 1.5133 3.7868 4.3386 2.0827 4.5104 5.2754 0.9997 2.3184 2.0179 -2.1551 -15.7118 -4.4920 -0.3441 38.7486 -2.2561 0.0682 16.5661 0.0000 0.0000 0.0000 -108.0364 -24.1665 77.1884 13.2874 -21.7069 -2.5586 -0.0000 0.0000 -42.5269 -156.6435 -59.8550 -20.4774 -7.1250 0.0000 -0.0000 160.9510 57.0115 -5.7486 0.0000 0.0000 0.0000 101.6354 28.9837 32.7146 -9.5937 16.1015 -1.3601 0.0000 -0.0000 -30.6502 -13.5974 -8.5215 2.0527 7.1250 -0.0000 -0.0000 11.4263 -38.5049 1.8566
-8.1643 17.8207 0.1459 -130.4910 85.9252 -116.5230 0.0000 0.0000 0.0000 -6.0512 -4.0910 -28.7755 2.1759 9.2233 26.4963 0.1899 -5.6919 -8.1552 1.1602 -6.8382 -19.2369 0.0000 0.0000 0.0000 9.4169 8.5222 -24.7372 -1.9747 -8.8132 25.2127 -0.0801 -7.4343 -12.2145 -0.0587 1.5637 -4.3013 -1.5011 1.5121 3.7993 4.3348 2.0803 4.5273 5.2977 0.9969 2.3279 2.0232 -2.1534 -15.7150 -4.5262 -0.3286 38.7547 -2.2697 0.0707 16.5708 0.0000 0.0000 0.0000 -108.0783 -24.1674 77.1816 13.2642 -21.6731 -2.5500 -0.0000 0.0000 -42.3791 -156.6695 -59.9201 -20.4664 -7.1250 0.0000 -0.0000 160.9385 56.9525 -5.7251 0.0000 0.0000 0.0000 101.6356 28.9845 32.5809 -9.6035 16.1169 -1.3628 0.0000 -0.0000 -30.5702 -13.4199 -8.5781 2.0383 7.1250 -0.0000 -0.0000 11.5874 -38.5492 1.8708
-8.1634 17.8193 0.1461 -130.6710 85.9289 -116.7160 0.0000 0.0000 0.0000 -6.0719 -4.0448 -28.7915 2.1805 9.2324 26.5250 0.1902 -5.7657 -8.1795 1.1175 -6.7153 -18.8747 0.0000 0.0000 0.0000 9.4002 8.5194 -24.6962 -1.9694 -8.8020 25.1778 -0.0838 -7.4160 -12.2595 -0.0602 1.5828 -4.3541 -1.5315 1.5071 3.7925 4.3452 2.0732 4.5426 5.3268 0.9920 2.3471 2.0171 -2.1618 -15.7080 -4.5521 -0.3298 38.7431 -2.2799 0.0654 16.5628 -0.0000 -0.0000 0.0000 -108.1806 -24.0957 77.0403 13.2455 -21.6459 -2.5431 -0.0000 0.0000 -42.1865 -156.5511 -59.8733 -20.5641 -7.1250 0.0000 -0.0000 161.0146 56.9843 -5.7158 -0.0000 -0.0000 0.0000 101.5500 28.9349 32.9275 -9.6683 16.2190 -1.3808 0.0000 -0.0000 -30.7752 -13.5811 -8.6568 2.0824 7.1250 -0.0000 -0.0000 11.4664 -38.6398 1.8247
